<?xml version="1.0" encoding="utf-8"?>
<!-- Generator: Adobe Illustrator 26.3.1, SVG Export Plug-In . SVG Version: 6.00 Build 0)  -->
<svg version="1.1" id="Layer_1" xmlns="http://www.w3.org/2000/svg" xmlns:xlink="http://www.w3.org/1999/xlink" x="0px" y="0px"
	 viewBox="0 0 455.16 82.2" style="enable-background:new 0 0 455.16 82.2;" xml:space="preserve">
<style type="text/css">
	.st0{fill:#004C6A;}
	.st1{fill:#7BB142;}
	.st2{fill:#014D6B;}
	.st3{font-family:'MyriadPro-It';}
	.st4{font-size:13.8348px;}
</style>
<g>
	<path class="st0" d="M342.42,54.42c-4,0-6.37-3.09-6.37-7c0-4.12,2.61-7.2,6.59-7.2c4.16,0,6.43,3.16,6.43,6.96
		c0,4.54-2.67,7.25-6.63,7.25H342.42z M342.57,51.95c2.07,0,3.25-1.98,3.25-4.68c0-2.47-1.14-4.59-3.25-4.59
		c-2.11,0-3.3,2.08-3.3,4.65c0,2.59,1.22,4.61,3.27,4.61H342.57z"/>
	<path class="st0" d="M354.64,40.44v7.9c0,2.39,0.91,3.59,2.46,3.59c1.61,0,2.49-1.14,2.49-3.59v-7.9h3.06v7.71
		c0,4.25-2.11,6.27-5.65,6.27c-3.41,0-5.4-1.94-5.4-6.31v-7.67H354.64z"/>
	<path class="st0" d="M365.8,54.2V40.44h3.57l2.82,5.04c0.8,1.45,1.59,3.16,2.21,4.71h0.04c-0.18-1.82-0.24-3.67-0.24-5.75v-4H377
		V54.2h-3.21l-2.89-5.3c-0.81-1.49-1.72-3.25-2.36-4.85h-0.08c0.1,1.83,0.14,3.77,0.14,6.02v4.14H365.8z"/>
	<path class="st0" d="M380.16,40.65c1.13-0.21,2.59-0.31,4.12-0.31c2.59,0,4.28,0.43,5.57,1.43c1.4,1.06,2.29,2.78,2.29,5.22
		c0,2.63-0.95,4.45-2.23,5.57c-1.43,1.2-3.62,1.77-6.26,1.77c-1.59,0-2.74-0.1-3.49-0.2V40.65z M383.22,51.84
		c0.26,0.07,0.7,0.07,1.06,0.07c2.79,0.02,4.62-1.53,4.62-4.82c0-2.96-1.65-4.36-4.3-4.36c-0.67,0-1.12,0.06-1.38,0.12V51.84z"/>
	<path class="st0" d="M397.79,50.66l-0.95,3.53h-3.17l4.14-13.76h4l4.22,13.76h-3.3l-1.04-3.53H397.79z M401.22,48.34l-0.85-2.92
		c-0.23-0.82-0.46-1.85-0.66-2.65h-0.07c-0.18,0.81-0.4,1.85-0.6,2.65l-0.82,2.92H401.22z"/>
	<polygon class="st0" points="410.95,43.05 407.31,43.05 407.31,40.44 417.71,40.44 417.71,43.05 414.02,43.05 414.02,54.2 
		410.95,54.2 	"/>
	<rect x="419.86" y="40.44" class="st0" width="3.05" height="13.76"/>
	<path class="st0" d="M431.81,54.42c-4,0-6.36-3.09-6.36-7c0-4.12,2.6-7.2,6.59-7.2c4.16,0,6.43,3.16,6.43,6.96
		c0,4.54-2.68,7.25-6.63,7.25H431.81z M431.96,51.95c2.06,0,3.25-1.98,3.25-4.68c0-2.47-1.15-4.59-3.25-4.59
		c-2.11,0-3.3,2.08-3.3,4.65c0,2.59,1.23,4.61,3.28,4.61H431.96z"/>
	<path class="st0" d="M440.98,54.2V40.44h3.57l2.81,5.04c0.81,1.45,1.59,3.16,2.21,4.71h0.04c-0.18-1.82-0.24-3.67-0.24-5.75v-4
		h2.81V54.2h-3.22l-2.89-5.3c-0.81-1.49-1.71-3.25-2.35-4.85h-0.08c0.1,1.83,0.14,3.77,0.14,6.02v4.14H440.98z"/>
	<path class="st0" d="M337.58,25.91c0.15,1.98,2.06,2.91,4.24,2.91c1.6,0,2.9-0.21,4.16-0.65l0.61,3.19
		c-1.54,0.65-3.41,0.96-5.44,0.96c-5.11,0-8.03-2.97-8.03-7.73c0-3.83,2.4-8.07,7.6-8.07c4.86,0,6.71,3.8,6.71,7.54
		c0,0.8-0.1,1.51-0.15,1.89L337.58,25.91z M343.09,22.7c0-1.11-0.49-3.06-2.62-3.06c-2,0-2.8,1.83-2.93,3.06H343.09z"/>
	<path class="st0" d="M363.52,28.35c0,1.42,0.06,2.81,0.24,3.65h-4.21l-0.28-1.52h-0.09c-0.99,1.2-2.53,1.85-4.31,1.85
		c-3.04,0-4.86-2.23-4.86-4.63c0-3.93,3.51-5.79,8.84-5.79v-0.18c0-0.8-0.43-1.95-2.74-1.95c-1.53,0-3.17,0.53-4.15,1.12l-0.87-3
		c1.05-0.58,3.11-1.36,5.85-1.36c5.02,0,6.59,2.97,6.59,6.52V28.35z M359,24.86c-2.46,0-4.37,0.59-4.37,2.38
		c0,1.2,0.8,1.79,1.85,1.79c1.13,0,2.12-0.77,2.43-1.73c0.06-0.25,0.1-0.53,0.1-0.81V24.86z"/>
	<path class="st0" d="M368.04,21.86c0-2.23-0.03-3.68-0.12-4.98h4l0.19,2.82h0.12c0.77-2.23,2.58-3.15,4.06-3.15
		c0.44,0,0.65,0.03,0.99,0.09v4.42c-0.4-0.06-0.77-0.12-1.29-0.12c-1.73,0-2.89,0.9-3.2,2.38c-0.07,0.31-0.09,0.65-0.09,1.05V32
		h-4.68L368.04,21.86z"/>
	<path class="st0" d="M385.7,12.77v4.11h3.36v3.46h-3.36v5.51c0,1.82,0.46,2.65,1.85,2.65c0.64,0,0.95-0.03,1.39-0.12l0.03,3.55
		c-0.59,0.22-1.73,0.4-3.02,0.4c-1.51,0-2.77-0.53-3.54-1.3c-0.86-0.9-1.3-2.35-1.3-4.48v-6.21h-2v-3.46h2v-2.84L385.7,12.77z"/>
	<rect x="392.53" y="10.05" class="st0" width="4.68" height="21.95"/>
	<path class="st0" d="M414.26,28.35c0,1.42,0.07,2.81,0.24,3.65h-4.21l-0.28-1.52h-0.09c-0.99,1.2-2.52,1.85-4.31,1.85
		c-3.04,0-4.87-2.23-4.87-4.63c0-3.93,3.51-5.79,8.84-5.79v-0.18c0-0.8-0.44-1.95-2.74-1.95c-1.53,0-3.16,0.53-4.15,1.12l-0.86-3
		c1.05-0.58,3.11-1.36,5.85-1.36c5.02,0,6.59,2.97,6.59,6.52V28.35z M409.73,24.86c-2.46,0-4.37,0.59-4.37,2.38
		c0,1.2,0.81,1.79,1.85,1.79c1.14,0,2.12-0.77,2.43-1.73c0.06-0.25,0.09-0.53,0.09-0.81V24.86z"/>
	<path class="st0" d="M418.76,21.71c0-1.89-0.06-3.46-0.13-4.82h4.07l0.21,2.1h0.1c0.62-0.99,2.12-2.44,4.64-2.44
		c3.08,0,5.38,2.07,5.38,6.52V32h-4.67v-8.38c0-1.95-0.67-3.28-2.37-3.28c-1.29,0-2.07,0.9-2.4,1.76c-0.12,0.31-0.16,0.74-0.16,1.17
		V32h-4.67V21.71z"/>
	<path class="st0" d="M452.13,10.05v17.44c0,1.73,0.07,3.49,0.13,4.51h-4.15l-0.18-2.19h-0.09c-0.93,1.66-2.77,2.53-4.71,2.53
		c-3.57,0-6.43-3.06-6.43-7.76c-0.03-5.07,3.13-8.03,6.74-8.03c1.87,0,3.29,0.68,3.97,1.7h0.06v-8.19H452.13z M447.46,23.31
		c0-0.28,0-0.59-0.06-0.87c-0.28-1.26-1.29-2.29-2.74-2.29c-2.15,0-3.24,1.92-3.24,4.3c0,2.54,1.26,4.15,3.2,4.15
		c1.36,0,2.46-0.93,2.74-2.26c0.06-0.31,0.09-0.68,0.09-1.05V23.31z"/>
	<path class="st0" d="M203.86,54.61c-0.62,0.3-2.1,0.67-3.97,0.67c-5.37,0-8.14-3.34-8.14-7.76c0-5.25,3.78-8.16,8.49-8.16
		c1.82,0,3.21,0.36,3.83,0.68l-0.74,2.74c-0.69-0.3-1.68-0.57-2.95-0.57c-2.77,0-4.94,1.66-4.94,5.12c0,3.08,1.84,5.03,4.96,5.03
		c1.08,0,2.24-0.21,2.95-0.51L203.86,54.61z"/>
	<path class="st0" d="M212.72,55.26c-4.23,0-6.73-3.18-6.73-7.21c0-4.25,2.76-7.43,6.96-7.43c4.39,0,6.79,3.27,6.79,7.18
		c0,4.67-2.82,7.47-7,7.47H212.72z M212.87,52.71c2.18,0,3.43-2.04,3.43-4.82c0-2.54-1.21-4.73-3.43-4.73
		c-2.23,0-3.49,2.14-3.49,4.8c0,2.67,1.3,4.75,3.46,4.75H212.87z"/>
	<path class="st0" d="M234.5,49.59c-0.06-1.7-0.13-3.74-0.13-5.82h-0.04c-0.47,1.81-1.06,3.83-1.62,5.49l-1.74,5.54h-2.53
		l-1.53-5.47c-0.47-1.68-0.93-3.68-1.29-5.55h-0.04c-0.06,1.91-0.15,4.1-0.23,5.86l-0.28,5.39h-2.99l0.91-14.18h4.31l1.4,4.76
		c0.47,1.61,0.89,3.38,1.21,5.05h0.08c0.38-1.64,0.87-3.49,1.36-5.09l1.51-4.71h4.25l0.77,14.18h-3.14L234.5,49.59z"/>
	<path class="st0" d="M252.99,49.59c-0.06-1.7-0.13-3.74-0.13-5.82h-0.04c-0.46,1.81-1.06,3.83-1.61,5.49l-1.74,5.54h-2.53
		l-1.53-5.47c-0.46-1.68-0.93-3.68-1.3-5.55h-0.04c-0.07,1.91-0.15,4.1-0.24,5.86l-0.28,5.39h-2.99l0.91-14.18h4.31l1.4,4.76
		c0.47,1.61,0.89,3.38,1.21,5.05h0.09c0.38-1.64,0.86-3.49,1.35-5.09l1.51-4.71h4.24l0.77,14.18h-3.14L252.99,49.59z"/>
	<path class="st0" d="M262.6,40.85v8.14c0,2.46,0.95,3.71,2.59,3.71c1.7,0,2.63-1.18,2.63-3.71v-8.14h3.22v7.95
		c0,4.38-2.23,6.46-5.97,6.46c-3.61,0-5.71-2-5.71-6.5v-7.91H262.6z"/>
	<path class="st0" d="M274.38,55.02V40.85h3.78l2.97,5.2c0.85,1.49,1.68,3.26,2.34,4.86h0.04c-0.19-1.87-0.25-3.78-0.25-5.94v-4.12
		h2.97v14.18h-3.4l-3.06-5.47c-0.85-1.53-1.81-3.34-2.48-5h-0.08c0.11,1.89,0.14,3.89,0.14,6.21v4.26H274.38z"/>
	<rect x="289.58" y="40.85" class="st0" width="3.22" height="14.18"/>
	<polygon class="st0" points="298.92,43.54 295.06,43.54 295.06,40.85 306.05,40.85 306.05,43.54 302.15,43.54 302.15,55.02 
		298.92,55.02 	"/>
	<path class="st0" d="M311.62,55.02v-5.81l-4.52-8.37h3.71l1.44,3.41c0.45,1.03,0.77,1.79,1.11,2.72h0.04
		c0.32-0.88,0.65-1.71,1.08-2.72l1.44-3.41h3.63l-4.71,8.26v5.92H311.62z"/>
	<polygon class="st0" points="325.61,40.44 333.87,40.44 333.87,42.99 328.67,42.99 328.67,46.14 333.53,46.14 333.53,48.67 
		328.67,48.67 328.67,54.2 325.61,54.2 	"/>
	<polygon class="st0" points="197.37,15.12 191.78,15.12 191.78,11.17 207.71,11.17 207.71,15.12 202.05,15.12 202.05,32 197.37,32 
			"/>
	<path class="st0" d="M210.85,21.86c0-2.23-0.03-3.68-0.12-4.98h4l0.18,2.82h0.12c0.77-2.23,2.58-3.15,4.06-3.15
		c0.43,0,0.64,0.03,0.98,0.09v4.42c-0.4-0.06-0.77-0.12-1.29-0.12c-1.72,0-2.89,0.9-3.2,2.38c-0.06,0.31-0.09,0.65-0.09,1.05V32
		h-4.68L210.85,21.86z"/>
	<path class="st0" d="M237.46,27.15c0,1.98,0.06,3.58,0.12,4.85h-4.06l-0.21-2.13h-0.09c-0.58,0.93-2,2.48-4.71,2.48
		c-3.08,0-5.29-1.92-5.29-6.59v-8.87h4.67v8.13c0,2.19,0.71,3.53,2.37,3.53c1.29,0,2.06-0.89,2.34-1.64
		c0.13-0.28,0.19-0.62,0.19-1.02v-9h4.68V27.15z"/>
	<path class="st0" d="M241.99,21.71c0-1.89-0.06-3.46-0.12-4.82h3.97l0.19,2.07h0.09c0.65-0.99,2-2.41,4.56-2.41
		c1.97,0,3.48,1.02,4.12,2.59h0.06c0.58-0.8,1.23-1.42,1.97-1.85c0.83-0.46,1.76-0.74,2.86-0.74c2.89,0,5.07,2.04,5.07,6.55V32
		h-4.55v-8.19c0-2.19-0.71-3.46-2.22-3.46c-1.11,0-1.84,0.74-2.19,1.64c-0.09,0.34-0.15,0.8-0.15,1.17V32h-4.55v-8.47
		c0-1.88-0.68-3.18-2.18-3.18c-1.2,0-1.91,0.93-2.19,1.67c-0.15,0.37-0.18,0.81-0.18,1.2V32h-4.56V21.71z"/>
	<path class="st0" d="M281.74,28.35c0,1.42,0.06,2.81,0.25,3.65h-4.22l-0.27-1.52h-0.1c-0.98,1.2-2.52,1.85-4.31,1.85
		c-3.04,0-4.86-2.23-4.86-4.63c0-3.93,3.51-5.79,8.83-5.79v-0.18c0-0.8-0.43-1.95-2.74-1.95c-1.54,0-3.17,0.53-4.16,1.12l-0.86-3
		c1.05-0.58,3.11-1.36,5.85-1.36c5.02,0,6.58,2.97,6.58,6.52V28.35z M277.22,24.86c-2.46,0-4.36,0.59-4.36,2.38
		c0,1.2,0.8,1.79,1.84,1.79c1.14,0,2.12-0.77,2.43-1.73c0.06-0.25,0.09-0.53,0.09-0.81V24.86z"/>
	<path class="st0" d="M286.23,21.71c0-1.89-0.06-3.46-0.13-4.82h4.07l0.21,2.1h0.1c0.61-0.99,2.12-2.44,4.64-2.44
		c3.08,0,5.38,2.07,5.38,6.52V32h-4.68v-8.38c0-1.95-0.67-3.28-2.37-3.28c-1.29,0-2.06,0.9-2.4,1.76c-0.13,0.31-0.15,0.74-0.15,1.17
		V32h-4.68V21.71z"/>
	<polygon class="st0" points="316.88,11.17 316.88,19.2 324.6,19.2 324.6,11.17 329.28,11.17 329.28,32 324.6,32 324.6,23.31 
		316.88,23.31 316.88,32 312.2,32 312.2,11.17 	"/>
	<path class="st1" d="M23.71,72.7c6.95-1.66,17.4-5.13,34.26-12.47c12.69-5.54,22.52-9.83,30.79-13.21
		c-0.47-0.17-0.94-0.32-1.43-0.48C34.3,28.6,14.93,29.5,8.49,29.91S0.2,31.96,0.2,31.96V72.7H23.71z"/>
	<path class="st1" d="M143.48,35.16c-13.97,2.21-24.18,5.36-40.07,11.85c-8.28,3.38-18.1,7.67-30.79,13.21
		C55.76,67.57,45.3,71.04,38.36,72.69h70.95h69.99l-0.23-38.44C167.88,32.91,155.46,33.27,143.48,35.16"/>
	<g>
		<path class="st0" d="M142.03,24.74h-11.14v6.6c2.08-0.4,4.2-0.78,6.41-1.13c2.64-0.42,5.26-0.75,7.88-1.02v-2.45h-3.14V24.74z"/>
		<path class="st0" d="M124.88,17.6h-6.29v4.86h-3.72v5.14h-2.29v-6.57h-11.43v2.29h-2.28V11.59H86.87V27.6h-2.28v-6.86h-8.86v6.86
			h-2v-9.71h-5.43v4h-12v-4.86h-9.72v11.78c11.09,2.44,25.51,6.42,44.56,12.86l3.79,1.28c0.61-0.26,1.22-0.51,1.81-0.75
			c13.08-5.34,22.2-8.36,32.15-10.45V27.6h-4V17.6z"/>
		<path class="st0" d="M155.17,25.03v-3.15h-7.43v7.07c3.87-0.32,7.69-0.49,11.43-0.49v-3.43H155.17z"/>
		<path class="st0" d="M20.85,25.05c1.15,0.05,2.38,0.13,3.72,0.24v-3.99h-3.72V25.05z"/>
		<path class="st0" d="M38.28,19.6H27.13v5.93c4.63,0.48,10.31,1.33,17.43,2.85v-5.35h-6.29V19.6z"/>
	</g>
	<rect y="80.97" class="st2" width="455.16" height="1.22"/>
	<rect class="st2" width="455.16" height="1.22"/>
	<g>
		<text transform="matrix(1 0 0 1 218.3677 70.285)"><tspan x="0" y="0" class="st0 st3 st4">P</tspan><tspan x="7.18" y="0" class="st0 st3 st4">ri</tspan><tspan x="15.3" y="0" class="st0 st3 st4">v</tspan><tspan x="21.78" y="0" class="st0 st3 st4">a</tspan><tspan x="29.16" y="0" class="st0 st3 st4">t</tspan><tspan x="33.71" y="0" class="st0 st3 st4">e </tspan><tspan x="43.05" y="0" class="st0 st3 st4">G</tspan><tspan x="51.99" y="0" class="st0 st3 st4">iving </tspan><tspan x="83.44" y="0" class="st0 st3 st4">f</tspan><tspan x="87.49" y="0" class="st0 st3 st4">or the </tspan><tspan x="124.07" y="0" class="st0 st3 st4">P</tspan><tspan x="131.23" y="0" class="st0 st3 st4">ublic </tspan><tspan x="162.14" y="0" class="st0 st3 st4">G</tspan><tspan x="171.1" y="0" class="st0 st3 st4">oo</tspan><tspan x="186.18" y="0" class="st0 st3 st4">d</tspan></text>
	</g>
</g>
</svg>
